<svg xmlns="http://www.w3.org/2000/svg" x="0px" y="0px" width="30" height="30" viewBox="0,0,256,256"
style="fill:#000000;">
<g fill="#ffffff" fill-rule="nonzero" stroke="none" stroke-width="1" stroke-linecap="butt" stroke-linejoin="miter" stroke-miterlimit="10" stroke-dasharray="" stroke-dashoffset="0" font-family="none" font-weight="none" font-size="none" text-anchor="none" style="mix-blend-mode: normal"><g transform="scale(5.12,5.12)"><path d="M9,4c-2.75042,0 -5,2.24958 -5,5v32c0,2.75042 2.24958,5 5,5h32c2.75042,0 5,-2.24958 5,-5v-32c0,-2.75042 -2.24958,-5 -5,-5zM9,6h32c1.67158,0 3,1.32842 3,3v32c0,1.67158 -1.32842,3 -3,3h-32c-1.67158,0 -3,-1.32842 -3,-3v-32c0,-1.67158 1.32842,-3 3,-3zM26.04297,10c-0.5515,0.00005 -0.99887,0.44655 -1,0.99805c0,0 -0.01098,4.87522 -0.02148,9.76172c-0.0053,2.44325 -0.01168,4.88902 -0.01562,6.73047c-0.00394,1.84145 -0.00586,3.0066 -0.00586,3.10352c0,1.81526 -1.64858,3.29883 -3.52734,3.29883c-1.86379,0 -3.35156,-1.48972 -3.35156,-3.35352c0,-1.86379 1.48777,-3.35156 3.35156,-3.35156c0.06314,0 0.1904,0.02075 0.4082,0.04688c0.28415,0.03406 0.56927,-0.05523 0.78323,-0.24529c0.21396,-0.19006 0.33624,-0.46267 0.33591,-0.74885v-4.20117c-0.00005,-0.528 -0.41054,-0.965 -0.9375,-0.99805c-0.15583,-0.0098 -0.35192,-0.0293 -0.58984,-0.0293c-5.24953,0 -9.52734,4.27782 -9.52734,9.52734c0,5.24953 4.27782,9.52734 9.52734,9.52734c5.24938,0 9.52734,-4.27782 9.52734,-9.52734v-9.04883c1.45461,1.16341 3.26752,1.90039 5.26953,1.90039c0.27306,0 0.53277,-0.01618 0.78125,-0.03906c0.51463,-0.04749 0.90832,-0.47927 0.9082,-0.99609v-4.66992c0.0003,-0.52448 -0.40463,-0.9601 -0.92773,-0.99805c-3.14464,-0.22561 -5.65141,-2.67528 -5.97852,-5.79102c-0.05305,-0.50925 -0.48214,-0.89619 -0.99414,-0.89648zM27.04102,12h2.28125c0.72678,3.2987 3.30447,5.8144 6.63672,6.44531v2.86523c-2.13887,-0.10861 -4.01749,-1.1756 -5.12305,-2.85742c-0.24284,-0.36962 -0.69961,-0.53585 -1.12322,-0.40877c-0.4236,0.12708 -0.71344,0.51729 -0.71272,0.95955v11.53516c0,4.16848 -3.35873,7.52734 -7.52734,7.52734c-4.16848,0 -7.52734,-3.35887 -7.52734,-7.52734c0,-4.00052 3.12077,-7.17588 7.05469,-7.43164v2.17578c-2.71358,0.25252 -4.87891,2.47904 -4.87891,5.25586c0,2.94421 2.40735,5.35352 5.35156,5.35352c2.92924,0 5.52734,-2.30609 5.52734,-5.29883c0,0.04892 0.00186,-1.25818 0.00586,-3.09961c0.0039,-1.84143 0.01037,-4.28722 0.01563,-6.73047c0.0094,-4.3869 0.0177,-7.91447 0.01953,-8.76367z"></path></g></g>
</svg>