<?xml version="1.0" ?><!DOCTYPE svg  PUBLIC '-//W3C//DTD SVG 1.1//EN'  'http://www.w3.org/Graphics/SVG/1.1/DTD/svg11.dtd'><svg height="100%" style="fill:white;clip-rule:evenodd;stroke-linejoin:round;stroke-miterlimit:2;" version="1.1" viewBox="0 0 24 24" width="100%" xml:space="preserve" xmlns="http://www.w3.org/2000/svg" xmlns:serif="http://www.serif.com/" xmlns:xlink="http://www.w3.org/1999/xlink"><g id="Icon"><path d="M21.75,12c0,-1.26 -0.5,-2.468 -1.391,-3.359c-0.891,-0.891 -2.099,-1.391 -3.359,-1.391l-5,-0c-1.26,-0 -2.468,0.5 -3.359,1.391c-0.891,0.891 -1.391,2.099 -1.391,3.359l-0,5c-0,1.26 0.5,2.468 1.391,3.359c0.891,0.891 2.099,1.391 3.359,1.391l5,-0c1.26,0 2.468,-0.5 3.359,-1.391c0.891,-0.891 1.391,-2.099 1.391,-3.359l-0,-5Zm-1.5,0l-0,5c0,0.862 -0.342,1.689 -0.952,2.298c-0.609,0.61 -1.436,0.952 -2.298,0.952l-5,-0c-0.862,0 -1.689,-0.342 -2.298,-0.952c-0.61,-0.609 -0.952,-1.436 -0.952,-2.298l-0,-5c-0,-0.862 0.342,-1.689 0.952,-2.298c0.609,-0.61 1.436,-0.952 2.298,-0.952l5,0c0.862,-0 1.689,0.342 2.298,0.952c0.61,0.609 0.952,1.436 0.952,2.298Z"/><path d="M16.404,5.219c-0.704,-1.741 -2.411,-2.969 -4.404,-2.969c-1.588,-0 -3.412,-0 -5,-0c-1.26,-0 -2.468,0.5 -3.359,1.391c-0.891,0.891 -1.391,2.099 -1.391,3.359l0,5c-0,1.993 1.228,3.7 2.969,4.404c0.383,0.156 0.821,-0.03 0.976,-0.413c0.156,-0.384 -0.03,-0.822 -0.414,-0.977c-1.191,-0.482 -2.031,-1.65 -2.031,-3.014l0,-5c-0,-0.862 0.342,-1.689 0.952,-2.298c0.609,-0.61 1.436,-0.952 2.298,-0.952c1.588,0 3.412,0 5,-0c1.364,-0 2.532,0.84 3.014,2.031c0.155,0.384 0.593,0.57 0.977,0.414c0.383,-0.155 0.569,-0.593 0.413,-0.976Z"/></g></svg>