<svg xmlns="http://www.w3.org/2000/svg" x="0px" y="0px" width="30" height="30" viewBox="0,0,256,256"
style="fill:#000000;">
<g fill="#ffffff" fill-rule="nonzero" stroke="none" stroke-width="1" stroke-linecap="butt" stroke-linejoin="miter" stroke-miterlimit="10" stroke-dasharray="" stroke-dashoffset="0" font-family="none" font-weight="none" font-size="none" text-anchor="none" style="mix-blend-mode: normal"><g transform="scale(5.12,5.12)"><path d="M5.3125,1l-0.25,0.65625l-3,8l-0.0625,0.15625v33.1875h11v6h7.40625l0.3125,-0.28125l5.71875,-5.71875h8.96875l0.3125,-0.28125l12.28125,-12.28125v-29.4375zM6.6875,3h39.3125v26.59375l-11.40625,11.40625h-9l-6,6h-4.59375v-6h-11v-30.8125zM10,5v30h8v7.40625l1.71875,-1.6875l5.71875,-5.71875h11.96875l0.3125,-0.28125l6,-6l0.28125,-0.3125v-23.40625zM12,7h30v20.5625l-5.4375,5.4375h-11.96875l-0.3125,0.28125l-4.28125,4.28125v-4.5625h-8zM20,13v14h6v-14zM30,13v14h6v-14zM22,15h2v10h-2zM32,15h2v10h-2z"></path></g></g>
</svg>